<svg width="530" height="530" viewBox="0 0 530 530" fill="none" xmlns="http://www.w3.org/2000/svg">
<path d="M365 215.5V137.7C365 136.5 363.5 136 362.7 136.9L277.7 243.1C277 243.9 277.6 245.2 278.7 245.2H340.1C341.8 245.2 343.3 244.4 344.3 243.1L363.7 218.9C364.5 218 365 216.8 365 215.5ZM166.2 219L230 298.8C231 300.1 232.6 300.8 234.3 300.8H295.7C296.8 300.8 297.4 299.6 296.7 298.8L167.2 137C166.4 136.1 164.9 136.6 164.9 137.8V215.6C165 216.8 165.4 218 166.2 219Z" fill="#FF4454"/>
<path d="M421.4 347.5H435.7V391.3C435.7 391.9 436.2 392.3 436.7 392.3H444.9C445.5 392.3 445.9 391.8 445.9 391.3V347.5H463.9C464.4 347.5 464.7 346.9 464.4 346.5L458.2 338.8C457.7 338.2 456.9 337.8 456.1 337.8H421.3C420.7 337.8 420.3 338.3 420.3 338.8V346.5C420.4 347 420.8 347.5 421.4 347.5ZM75.7 391.4L117.7 338.8C118 338.4 117.7 337.8 117.2 337.8H106.8C106 337.8 105.2 338.2 104.7 338.8L74.9 376.1V338.8C74.9 338.2 74.4 337.8 73.9 337.8H65.7C65.1 337.8 64.7 338.3 64.7 338.8V391.4C64.7 392 65.2 392.4 65.7 392.4H73.7C74.4 392.4 75.2 392 75.7 391.4ZM105.4 391.4L119.8 373.3L134.3 391.4C134.8 392 135.6 392.4 136.4 392.4H144.4C145 392.4 145.4 391.9 145.4 391.4V338.8C145.4 338.2 144.9 337.8 144.4 337.8H137.7C136.1 337.8 134.5 338.5 133.5 339.8L92.2999 391.4C91.9999 391.8 92.2999 392.4 92.7999 392.4H103.2C104.1 392.4 104.8 392 105.4 391.4ZM135.2 353V377.2L125.5 365.1L135.2 353ZM369.7 391.4L327.7 338.8C327.2 338.2 326.4 337.8 325.6 337.8H317.6C317 337.8 316.6 338.3 316.6 338.8V391.4C316.6 392 317.1 392.4 317.6 392.4H325.6C326.4 392.4 327.2 392 327.7 391.4L342.2 373.3L356.6 391.4C357.1 392 357.9 392.4 358.7 392.4H369.2C369.8 392.4 370.1 391.8 369.7 391.4ZM336.5 365.1L326.8 377.2V353L336.5 365.1ZM220.9 336.4C205.1 336.4 192.2 349.2 192.2 365.1C192.2 380.9 205 393.8 220.9 393.8C236.7 393.8 249.6 381 249.6 365.1C249.6 349.2 236.7 336.4 220.9 336.4ZM220.9 384C210.7 384 202.5 375.5 202.5 365.1C202.5 354.6 210.7 346.2 220.9 346.2C231.1 346.2 239.3 354.7 239.3 365.1C239.3 375.5 231.1 384 220.9 384ZM403 338.8V376.1L373.2 338.8C372.7 338.2 371.9 337.8 371.1 337.8H363.1C362.5 337.8 362.1 338.3 362.1 338.8V364.1C362.1 364.7 362.3 365.3 362.7 365.8L371.2 376.5C371.6 377 372.3 376.7 372.3 376.1V354.1L402.1 391.4C402.6 392 403.4 392.4 404.2 392.4H412.2C412.8 392.4 413.2 391.9 413.2 391.4V338.8C413.2 338.2 412.7 337.8 412.2 337.8H404C403.5 337.8 403 338.2 403 338.8ZM302.8 350.2V338.8C302.8 338.2 302.3 337.8 301.8 337.8H259.8C259.2 337.8 258.8 338.3 258.8 338.8V391.4C258.8 392 259.3 392.4 259.8 392.4H268C268.6 392.4 269 391.9 269 391.4V347.6H292.5L276.6 367.5C276.3 367.9 276.3 368.4 276.6 368.8L294.7 391.5C295.2 392.1 296 392.5 296.8 392.5H307.3C307.8 392.5 308.1 391.9 307.8 391.5L289.3 368L302.2 351.8C302.6 351.4 302.8 350.8 302.8 350.2ZM158.8 392.4H183.1C183.9 392.4 184.7 392 185.2 391.4L191.3 383.7C191.6 383.3 191.3 382.7 190.8 382.7H168V338.9C168 338.3 167.5 337.9 167 337.9H158.8C158.2 337.9 157.8 338.4 157.8 338.9V391.5C157.8 391.9 158.2 392.4 158.8 392.4Z" fill="#FF4454"/>
</svg>
